Coordinates
version=1
nRows=20
nColumns=30
inDegrees=yes

Units are S.I. units (second, meters, Newtons, ...)
Angles are in degrees.

endheader
time	floatyaw	floatroll	floatpitch	floatx	floaty	floatz	pro_sup_l	deviation_l	flexion_l	cmc_flexion_l	cmc_abduction_l	mp_flexion_l	ip_flexion_l	2mcp_flexion_l	2mcp_abduction_l	2pm_flexion_l	2md_flexion_l	3mcp_flexion_l	3mcp_abduction_l	3pm_flexion_l	3md_flexion_l	4mcp_flexion_l	4mcp_abduction_l	4pm_flexion_l	4md_flexion_l	5mcp_flexion_l	5mcp_abduction_l	5pm_flexion_l	5md_flexion_l
-0.995000	-1.071121	-4.178315	93.848517	-0.009347	-0.265422	-0.003398	89.184159	0.776416	-1.972778	24.131764	3.665118	-17.784229	-28.312172	19.844482	5.722338	30.890304	20.639733	9.878622	4.475068	33.569737	21.641561	-1.026717	-4.011113	50.465628	32.859868	-20.436414	-7.824113	60.516835	49.281543
-0.985000	-1.071121	-4.178315	93.848517	-0.009327	-0.265392	-0.003430	89.215451	0.793636	-1.961323	24.132656	3.624878	-17.775725	-28.279351	19.797494	5.725993	30.939246	20.646852	9.841579	4.471678	33.620791	21.643825	-1.062847	-4.010060	50.524701	32.844095	-20.425306	-7.836871	60.523431	49.274367
-0.975000	-1.071121	-4.178315	93.848517	-0.009303	-0.265365	-0.003459	89.247893	0.807790	-1.958019	24.153244	3.602436	-17.774871	-28.279657	19.764554	5.737045	30.990169	20.650539	9.812753	4.469417	33.677706	21.644024	-1.074883	-4.010074	50.566100	32.821543	-20.388869	-7.848415	60.523594	49.271643
-0.965000	-1.071121	-4.178315	93.848517	-0.009285	-0.265351	-0.003477	89.272106	0.814570	-1.961659	24.180803	3.600505	-17.777343	-28.297021	19.748566	5.752904	31.030902	20.648660	9.794893	4.467385	33.726434	21.639867	-1.068613	-4.010276	50.582172	32.796446	-20.344577	-7.856187	60.509213	49.275156
-0.955000	-1.071121	-4.178315	93.848517	-0.009280	-0.265353	-0.003479	89.281269	0.811801	-1.968405	24.200968	3.613774	-17.778303	-28.311658	19.747853	5.769299	31.050961	20.640824	9.785001	4.465426	33.756485	21.630743	-1.055668	-4.009841	50.571748	32.771604	-20.316810	-7.859461	60.477899	49.284171
-0.945000	-1.071121	-4.178315	93.848517	-0.009294	-0.265370	-0.003463	89.274601	0.800400	-1.974160	24.207025	3.631113	-17.776196	-28.313256	19.757280	5.782287	31.046027	20.628860	9.777468	4.464470	33.764053	21.617840	-1.046367	-4.008772	50.538836	32.747752	-20.324296	-7.858823	60.434001	49.295758
-0.935000	-1.071121	-4.178315	93.848517	-0.009324	-0.265398	-0.003436	89.258153	0.783949	-1.977135	24.204148	3.640701	-17.773945	-28.307412	19.770989	5.789902	31.019657	20.616126	9.768706	4.466128	33.751894	21.603464	-1.043321	-4.007873	50.489642	32.724189	-20.370152	-7.855471	60.386397	49.306198
-0.925000	-1.071121	-4.178315	93.848517	-0.009363	-0.265432	-0.003403	89.242052	0.767084	-1.978984	24.205689	3.635755	-17.776742	-28.311220	19.785059	5.792557	30.981550	20.606192	9.760185	4.471777	33.726588	21.590145	-1.039773	-4.007977	50.430013	32.700275	-20.440780	-7.851064	60.344418	49.312360
-0.915000	-1.071121	-4.178315	93.848517	-0.009403	-0.265466	-0.003372	89.235420	0.753534	-1.983764	24.224337	3.617973	-17.788304	-28.341716	19.798699	5.792154	30.943194	20.601682	9.757872	4.481679	33.695017	21.580126	-1.023791	-4.009091	50.364668	32.676904	-20.514102	-7.848061	60.314183	49.312198
-0.905000	-1.071121	-4.178315	93.848517	-0.009435	-0.265496	-0.003346	89.241886	0.744868	-1.995367	24.264375	3.596781	-17.808425	-28.405279	19.813791	5.790723	30.912954	20.603610	9.768548	4.494699	33.662016	21.575332	-0.985716	-4.010150	50.298140	32.657078	-20.571461	-7.849659	60.297325	49.304640
-0.895000	-1.071121	-4.178315	93.848517	-0.009455	-0.265523	-0.003328	89.258525	0.740621	-2.014943	24.319823	3.584455	-17.833238	-28.494338	19.833390	5.789610	30.893068	20.610996	9.795340	4.508751	33.630300	21.577265	-0.924370	-4.009548	50.236310	32.645152	-20.605513	-7.858635	60.292588	49.289888
-0.885000	-1.071121	-4.178315	93.848517	-0.009461	-0.265543	-0.003316	89.278851	0.739611	-2.039722	24.378616	3.589405	-17.857408	-28.592027	19.860007	5.789551	30.880080	20.620635	9.834944	4.521633	33.602445	21.586425	-0.848705	-4.006142	50.187165	32.644990	-20.620033	-7.875428	60.298938	49.270431
-0.875000	-1.071121	-4.178315	93.848517	-0.009452	-0.265552	-0.003313	89.297670	0.741450	-2.063784	24.428992	3.611141	-17.876460	-28.680435	19.894253	5.791022	30.868149	20.627502	9.877899	4.531645	33.583118	21.601643	-0.774379	-4.000197	50.159899	32.657799	-20.623530	-7.896860	60.317845	49.251776
-0.865000	-1.071121	-4.178315	93.848517	-0.009431	-0.265545	-0.003320	89.314367	0.747109	-2.080336	24.463904	3.639630	-17.887969	-28.747009	19.934032	5.794069	30.853124	20.626390	9.911763	4.537661	33.579278	21.620058	-0.717354	-3.993659	50.162274	32.680674	-20.622569	-7.916750	60.353007	49.241485
-0.855000	-1.071121	-4.178315	93.848517	-0.009400	-0.265515	-0.003337	89.332449	0.758081	-2.084409	24.481726	3.659479	-17.891481	-28.786381	19.974098	5.797622	30.835326	20.614667	9.925756	4.538842	33.597372	21.638111	-0.687679	-3.989420	50.197112	32.706625	-20.619820	-7.928507	60.407379	49.246331
-0.845000	-1.071121	-4.178315	93.848517	-0.009365	-0.265465	-0.003362	89.355797	0.774623	-2.074815	24.484182	3.657080	-17.887656	-28.798458	20.006143	5.799095	30.819945	20.594811	9.914767	4.534497	33.638911	21.653125	-0.686185	-3.989761	50.259292	32.726254	-20.617296	-7.928359	60.478859	49.268922
-0.835000	-1.071121	-4.178315	93.848517	-0.009331	-0.265403	-0.003385	89.384393	0.794215	-2.054575	24.473576	3.627409	-17.877334	-28.785326	20.020361	5.795068	30.814730	20.574751	9.881125	4.524311	33.697250	21.664494	-0.705069	-3.994769	50.334746	32.730640	-20.620435	-7.917201	60.556870	49.305757
-0.825000	-1.071121	-4.178315	93.848517	-0.009306	-0.265346	-0.003395	89.412807	0.811380	-2.029630	24.451208	3.577014	-17.861050	-28.748964	20.009341	5.782979	30.825520	20.564813	9.833625	4.508739	33.757982	21.673649	-0.731730	-4.001759	50.402710	32.714633	-20.637752	-7.899776	60.622325	49.347649
-0.815000	-1.071121	-4.178315	93.848517	-0.009292	-0.265307	-0.003378	89.432788	0.819298	-2.006195	24.417634	3.521628	-17.839209	-28.690321	19.973292	5.762911	30.851363	20.572182	9.784320	4.489152	33.803524	21.682797	-0.754396	-4.006334	50.441805	32.679555	-20.674638	-7.881735	60.652424	49.381979
-0.805000	-1.071121	-4.178315	93.848517	-0.009287	-0.265289	-0.003323	89.438166	0.812490	-1.987746	24.374004	3.480078	-17.812630	-28.609617	19.923450	5.738348	30.882018	20.596027	9.744320	4.467621	33.820078	21.693305	-0.767736	-4.004880	50.438606	32.634186	-20.725185	-7.866581	60.629026	49.395859
